<?xml version="1.0" encoding="utf-8"?>
<!-- Generator: Adobe Illustrator 22.1.0, SVG Export Plug-In . SVG Version: 6.00 Build 0)  -->
<svg version="1.1" id="Capa_1" xmlns="http://www.w3.org/2000/svg" xmlns:xlink="http://www.w3.org/1999/xlink" x="0px" y="0px"
	 viewBox="0 0 16 16" style="enable-background:new 0 0 16 16;" xml:space="preserve">
<style type="text/css">
	.st0{fill:#CCCCCC;}
</style>
<g>
	<g>
		<path class="st0" d="M6.3,3.4V0.6C6.3,0.3,6,0,5.7,0C5.6,0,5.4,0.1,5.3,0.2L0.1,5.9C0,6.1,0,6.4,0.1,6.6l5.1,6.3
			c0.2,0.2,0.6,0.3,0.8,0.1c0.1-0.1,0.2-0.3,0.2-0.4V9.7c4.5,0.1,7.3,2.1,8.6,5.9c0.1,0.2,0.3,0.4,0.5,0.4c0,0,0.1,0,0.1,0
			c0.3,0,0.5-0.3,0.5-0.6C16,8.7,11.9,3.8,6.3,3.4z"/>
	</g>
</g>
</svg>
