<?xml version="1.0" encoding="utf-8"?>
<!-- Generator: Adobe Illustrator 22.1.0, SVG Export Plug-In . SVG Version: 6.00 Build 0)  -->
<svg version="1.1" id="Capa_1" xmlns="http://www.w3.org/2000/svg" xmlns:xlink="http://www.w3.org/1999/xlink" x="0px" y="0px"
	 viewBox="0 0 512 512" style="enable-background:new 0 0 512 512;" xml:space="preserve">
<style type="text/css">
	.st0{fill:#FFFFFF;stroke:#FFFFFF;stroke-width:30;stroke-miterlimit:10;}
</style>
<g>
	<g>
		<g>
			<path class="st0" d="M479.9,81.5c-10.4-0.9-19.5,6.7-20.5,17l-2.5,27.4C414.6,59.4,341.1,15,256,15
				C164.4,15,83.7,67.3,43.6,145.7c-4.7,9.3-1.1,20.6,8.2,25.3c9.3,4.7,20.6,1.1,25.3-8.2C111.1,96.5,179.2,52.7,256,52.7
				c70,0,133.2,36.5,169.4,93.6l-26.8-19.2c-8.5-6-20.2-4.1-26.3,4.4c-6,8.5-4.1,20.2,4.4,26.3l81.4,58.1
				c11.9,8.5,28.4,0.7,29.7-13.6l9.1-100.3C497.9,91.6,490.2,82.4,479.9,81.5z"/>
		</g>
	</g>
	<g>
		<g>
			<path class="st0" d="M460.1,341c-9.3-4.7-20.6-1.1-25.3,8.2c-33.9,66.4-102,110.2-178.8,110.2c-70,0-133.2-36.5-169.4-93.6
				l26.8,19.2c8.5,6,20.2,4.1,26.3-4.4c6-8.5,4.1-20.2-4.4-26.3l-81.4-58.1c-11.8-8.4-28.4-0.9-29.7,13.6L15.1,410
				c-0.9,10.4,6.7,19.5,17,20.5c10.4,0.9,19.5-6.7,20.5-17l2.5-27.4C97.4,452.6,170.9,497,256,497c91.6,0,172.3-52.3,212.4-130.7
				C473.1,357,469.4,345.7,460.1,341z"/>
		</g>
	</g>
</g>
</svg>
