<?xml version="1.0" encoding="utf-8"?>
<!-- Generator: Adobe Illustrator 22.1.0, SVG Export Plug-In . SVG Version: 6.00 Build 0)  -->
<svg version="1.1" id="bold" xmlns="http://www.w3.org/2000/svg" xmlns:xlink="http://www.w3.org/1999/xlink" x="0px" y="0px"
	 viewBox="0 0 16 16" style="enable-background:new 0 0 16 16;" xml:space="preserve">
<style type="text/css">
	.st0{fill:#0075FF;}
</style>
<path class="st0" d="M8,10.7c-0.1,0-0.3-0.1-0.4-0.2L4.1,6.8C3.8,6.5,4.1,6,4.5,6h1.8V2.2c0-0.5,0.4-0.8,0.8-0.8h1.7
	c0.5,0,0.8,0.4,0.8,0.8V6h1.8c0.4,0,0.7,0.5,0.4,0.8l-3.5,3.7C8.3,10.6,8.1,10.7,8,10.7z"/>
<path class="st0" d="M14.8,14.7H1.2c-0.6,0-1.2-0.5-1.2-1.2v-0.3C0,12.5,0.5,12,1.2,12h13.7c0.6,0,1.2,0.5,1.2,1.2v0.3
	C16,14.1,15.5,14.7,14.8,14.7z"/>
</svg>
